<svg width="64" height="63" viewBox="0 0 64 63" fill="none" xmlns="http://www.w3.org/2000/svg">
<g clip-path="url(#clip0_26_29)">
<path d="M59.4158 47.9646C58.9252 47.9648 58.4409 47.8528 57.9996 47.6369C57.5583 47.4209 57.1716 47.1068 56.8687 46.7183L36.1321 19.7629L45.2781 10.8843C47.6709 8.57426 50.1072 6.31089 52.5868 4.09424C54.9128 2.01968 58.533 1.17927 61.6593 1.17927C61.6912 1.17927 61.6593 0.0347098 61.6593 0.0347098H43.7776V1.11245L46.5418 1.15584C47.5211 1.16087 48.4986 1.2413 49.4657 1.39642C49.6385 1.42773 49.8014 1.50016 49.9408 1.60767C50.0803 1.71518 50.1921 1.85466 50.2672 2.01449C50.3422 2.17432 50.3782 2.34988 50.3722 2.52655C50.3661 2.70322 50.3183 2.87589 50.2325 3.03016C49.5258 4.29456 48.6579 5.46057 47.6509 6.49854C43.0478 11.2119 31.36 22.5201 30.0352 23.7979C30.0087 21.4767 30.0367 1.14325 30.0367 1.14325L36.9843 1.14456V0H16.7298V1.14456L22.8919 1.13913L22.9052 47.9245L16.5007 47.9212V49.1983C16.4994 49.181 36.9005 49.1983 36.9005 49.1983V47.9546L29.9873 47.9559L29.9927 25.8501C29.9822 25.8475 30.496 25.4186 30.8548 25.1197C31.5273 25.9599 32.3075 26.9328 32.3155 26.9357L48.2042 47.9351L41.9434 47.9364V49.2122H63.4816V47.9685C63.4976 47.9685 60.4978 47.9631 59.4165 47.9631L59.4158 47.9646Z" fill="#F36B6D"/>
<path d="M16.5961 12.1929C15.5644 11.4034 14.3688 10.8589 13.0985 10.6001C11.8283 10.3414 10.5164 10.375 9.26091 10.6986C7.06959 11.2828 5.10674 12.5243 3.6332 14.2581C1.88267 16.3346 0.710874 18.8415 0.237412 21.5228C-0.23605 24.204 0.00577688 26.9638 0.938211 29.5202C2.13656 32.7112 4.38799 35.6502 7.57029 37.0262C8.85655 37.5759 10.2355 37.8725 11.6326 37.9001C11.823 37.9032 12.0135 37.8929 12.2025 37.8692C13.9936 37.6359 15.6855 36.9075 17.0903 35.765C17.6095 35.3454 18.3285 34.7799 19.0009 35.2315C19.4988 35.56 19.6706 36.8089 19.676 36.8152H20.3405L20.3484 28.0425L19.676 28.0383C19.676 28.0383 19.6294 28.8102 19.6215 29.1547C19.5538 30.1535 19.291 31.1291 18.8479 32.0254C18.6917 32.328 18.5319 32.6287 18.3686 32.9274C16.7614 35.8893 13.1198 38.0174 9.74844 36.9492C8.8955 36.674 8.11203 36.2159 7.4521 35.6063C6.79217 34.9968 6.2715 34.2504 5.92601 33.4186C4.1897 29.2306 3.93279 24.56 4.55847 20.1026C4.72373 18.8998 4.96249 17.7084 5.27339 16.5351C5.77982 14.6474 6.96047 13.0142 8.58911 11.9484C8.89857 11.7491 9.23165 11.5898 9.58055 11.474C10.9891 11.0151 12.5031 10.9993 13.9207 11.4287C15.3384 11.8581 16.5923 12.7123 17.5153 13.8774C18.6357 15.3209 19.368 17.0304 19.6417 18.8413C19.6723 19.0973 19.7603 19.608 19.7603 19.608H20.3834L20.3875 11.6595L19.6512 11.6608C19.6579 11.6608 19.6499 11.9716 19.6458 12.123C19.6286 12.9084 18.7818 13.1752 18.1067 13.0598C17.5101 12.9565 17.0601 12.5532 16.5954 12.192L16.5961 12.1929ZM62.8549 0.0978394V0.222578H62.5419V1.13523H62.4141V0.222578H62.1012V0.0978394H62.8549ZM63.1092 0.0978394H63.2903L63.5567 0.975563L63.8218 0.0978394H64.0002V1.13523H63.8804V0.5226L63.8817 0.418037L63.8834 0.260108L63.6185 1.13523H63.4933L63.2265 0.260108V0.292214L63.2278 0.407407L63.2304 0.521299V1.13371H63.1092V0.0978394Z" fill="#F36B6D"/>
<path d="M18.7454 62.6692H18.1223V61.8086C17.9085 62.1179 17.6218 62.369 17.2879 62.5393C16.954 62.7097 16.5833 62.7941 16.209 62.7848C15.8702 62.7888 15.5339 62.7254 15.2195 62.5984C14.905 62.4713 14.6186 62.2831 14.3765 62.0444C14.1344 61.8058 13.9415 61.5214 13.8089 61.2076C13.6762 60.8938 13.6063 60.5567 13.6033 60.2156C13.6038 59.8735 13.6723 59.5349 13.8048 59.2198C13.9372 58.9047 14.131 58.6194 14.3747 58.3809C14.6184 58.1423 14.9071 57.9552 15.2237 57.8307C15.5403 57.7061 15.8785 57.6466 16.2183 57.6556C16.591 57.6533 16.9588 57.7417 17.2903 57.9132C17.6217 58.0847 17.9072 58.3343 18.1223 58.6407V57.7729H18.7454V62.6692ZM19.8918 54.9202H20.5136V62.6677H19.8918V54.9202ZM26.5987 57.7708H27.2213V62.6692H26.5987V57.7708ZM28.2367 57.7708H28.8598V58.4072C29.3766 57.8532 29.6463 57.7013 30.2336 57.7013C31.5585 57.7013 32.1656 58.5925 32.1656 60.0065V62.6692H31.5423V60.0061C31.5423 58.9487 31.1759 58.2652 30.2413 58.2652C29.9822 58.2561 29.7262 58.3243 29.5054 58.4612C29.2847 58.598 29.109 58.7974 29.0003 59.0344C28.8875 59.3372 28.8395 59.6605 28.8594 59.9833V62.6692H28.2363V57.7708H28.2367ZM40.509 54.9202H41.1321V62.6677H40.509V54.9202Z" fill="#F36B6D"/>
<path d="M26.9809 55.6493C27.1913 55.6493 27.3618 55.4777 27.3618 55.266C27.3618 55.0543 27.1913 54.8827 26.9809 54.8827C26.7706 54.8827 26.6001 55.0543 26.6001 55.266C26.6001 55.4777 26.7706 55.6493 26.9809 55.6493Z" fill="#F36B6D"/>
<path d="M48.1008 57.7708H48.7239V62.6692H48.1008V57.7708Z" fill="#F36B6D"/>
<path d="M48.4831 55.6493C48.6935 55.6493 48.864 55.4777 48.864 55.266C48.864 55.0543 48.6935 54.8827 48.4831 54.8827C48.2728 54.8827 48.1023 55.0543 48.1023 55.266C48.1023 55.4777 48.2728 55.6493 48.4831 55.6493Z" fill="#F36B6D"/>
<path d="M13.0335 61.3517C12.5425 61.736 11.9538 61.973 11.3349 62.0355C10.7161 62.0981 10.0923 61.9836 9.5352 61.7052C8.97814 61.4268 8.51043 60.9958 8.18585 60.4618C7.86127 59.9278 7.69299 59.3125 7.70035 58.6865C7.70772 58.0605 7.89043 57.4494 8.22749 56.9233C8.56454 56.3972 9.04225 55.9775 9.60571 55.7124C10.1692 55.4474 10.7955 55.3478 11.4127 55.425C12.0299 55.5023 12.6129 55.7533 13.0947 56.1492L13.51 55.6654C12.9355 55.1887 12.2386 54.8856 11.5 54.7912C10.7615 54.6967 10.0114 54.8147 9.33672 55.1316C8.66203 55.4485 8.09031 55.9512 7.68776 56.5816C7.28522 57.212 7.0683 57.9443 7.06215 58.6936C7.05599 59.443 7.26084 60.1787 7.65297 60.8157C8.0451 61.4528 8.60848 61.9649 9.27786 62.293C9.94725 62.6211 10.6953 62.7516 11.4353 62.6694C12.1753 62.5872 12.8771 62.2958 13.4594 61.8288L13.0335 61.3517ZM21.0495 57.7762L23.4311 63L25.9024 57.7762H25.2273L23.4311 61.5756L21.7228 57.7762H21.0495ZM49.8081 57.7708H50.4312V58.4072C50.9485 57.8523 51.2168 57.7009 51.8039 57.7009C53.1288 57.7009 53.7359 58.5921 53.7359 60.0061V62.6692H53.1139V60.0061C53.1139 58.9487 52.7475 58.2652 51.813 58.2652C51.5539 58.2561 51.2979 58.3243 51.0771 58.4612C50.8563 58.598 50.6806 58.7974 50.572 59.0344C50.4591 59.3372 50.4109 59.6605 50.4308 59.9833V62.669H49.8077V57.7708H49.8081ZM34.9471 54.92H35.6195V58.4328L38.887 54.92H39.7144L36.6222 58.3476L39.6461 62.6683H38.8419L36.1814 58.8309L35.6193 59.3889V62.6692H34.9469L34.9471 54.92Z" fill="#F36B6D"/>
<path d="M16.2012 62.2214C16.7158 62.203 17.2032 61.9846 17.5611 61.6121C17.9191 61.2396 18.1196 60.7419 18.1206 60.2237C18.1217 59.7055 17.9231 59.207 17.5667 58.8331C17.2102 58.4591 16.7237 58.2387 16.2092 58.2183C15.6853 58.2226 15.1842 58.4349 14.8149 58.8089C14.4456 59.1829 14.2379 59.6885 14.2368 60.2159C14.2358 60.7432 14.4415 61.2497 14.8093 61.6252C15.1771 62.0007 15.6773 62.215 16.2012 62.2214Z" fill="white"/>
<path d="M44.615 62.2214C44.1371 62.2121 43.6796 62.0247 43.3311 61.6955C42.9826 61.3662 42.7678 60.9185 42.7283 60.4391H47.1682C47.192 60.052 47.1343 59.6643 46.999 59.3012C46.8329 58.8645 46.5513 58.4818 46.1847 58.1945C45.8181 57.9072 45.3805 57.7262 44.9191 57.6711C44.4577 57.6159 43.9901 57.6888 43.5669 57.8818C43.1437 58.0748 42.7809 58.3805 42.5178 58.7659C42.2547 59.1514 42.1013 59.6019 42.0742 60.0687C42.047 60.5356 42.1472 61.001 42.3638 61.4147C42.5804 61.8285 42.9052 62.1747 43.3032 62.4161C43.7012 62.6574 44.1571 62.7847 44.6217 62.7842C45.0726 62.7787 45.5142 62.6548 45.9028 62.4246C46.2915 62.1945 46.6136 61.8662 46.8374 61.4721L46.3046 61.1359C46.1502 61.4563 45.9105 61.7274 45.6123 61.9191C45.314 62.1107 44.9688 62.2154 44.615 62.2214ZM44.6243 58.2183C45.5403 58.2183 46.2886 58.8724 46.521 59.8748H42.7492C42.8161 59.4199 43.0413 59.0036 43.3847 58.7002C43.7281 58.3968 44.1674 58.226 44.6243 58.2183Z" fill="#F36B6D"/>
</g>
<defs>
<clipPath id="clip0_26_29">
<rect width="64" height="63" fill="white"/>
</clipPath>
</defs>
</svg>
