<svg width="122" height="25" viewBox="0 0 122 25" fill="none" xmlns="http://www.w3.org/2000/svg">
<path fill-rule="evenodd" clip-rule="evenodd" d="M2.21454 24.9985H0.500324C0.35716 24.9985 0 24.9985 0 24.7154C0 24.5273 0.0715819 24.4323 0.285953 24.3378C1.85738 23.677 2.21454 22.5455 2.21454 20.9429V4.05662C2.21454 2.54653 1.85701 1.41457 0.285953 0.65977C0.0715819 0.65977 0 0.470699 0 0.376658C0 2.95014e-08 0.357535 0.0935458 0.500324 0.0935458H14.6428C15.4093 0.0794332 16.1703 0.26663 16.8816 0.644259C17.5928 1.02189 18.2402 1.58242 18.786 2.29329C19.3318 3.00416 19.7653 3.85119 20.0611 4.78517C20.3569 5.71915 20.5092 6.72146 20.5092 7.73386C20.5092 8.74627 20.3569 9.74857 20.0611 10.6826C19.7653 11.6165 19.3318 12.4636 18.786 13.1744C18.2402 13.8853 17.5928 14.4458 16.8816 14.8235C16.1703 15.2011 15.4093 15.3883 14.6428 15.3742H7.49999V21.1285C7.57232 22.6376 7.92911 23.6745 9.42895 24.3353C9.64333 24.4308 9.71416 24.5248 9.71416 24.7129C9.71416 24.996 9.35737 24.996 9.21421 24.996H2.21454V24.9985ZM107.643 15.8483H111L107.643 8.30133L107.284 7.54603L104.286 15.8483H107.643H107.643ZM107.643 0.000989903H109.929L119.5 22.2649C119.762 22.8467 120.131 23.3323 120.572 23.6775C120.924 23.9761 121.309 24.1991 121.714 24.3382C121.858 24.4338 122 24.5278 122 24.7159C122 24.999 121.643 24.999 121.5 24.999H112.999C112.857 24.999 112.428 24.999 112.428 24.7159C112.428 24.5278 112.571 24.4328 112.715 24.3382C112.913 24.2766 113.095 24.1488 113.245 23.9673C113.395 23.7857 113.507 23.5564 113.57 23.3013C113.714 22.6406 113.57 22.2644 113.213 21.4136C112.728 20.0521 112.229 18.7003 111.714 17.3579H103.714L103.643 17.546C103.57 17.9237 103 19.2437 102.57 20.6593C101.999 22.1684 101.785 22.545 101.927 23.3003C102 23.8661 102.356 24.1492 102.784 24.3373C102.928 24.4328 103 24.5268 103 24.7149C103 24.998 102.642 24.998 102.5 24.998H98.5702C98.4278 24.998 98.0699 24.998 98.0699 24.7149C98.0699 24.5268 98.1422 24.4318 98.3559 24.3373C98.7608 24.1983 99.1465 23.9752 99.4985 23.6765C99.9393 23.3312 100.308 22.8456 100.57 22.2639L101.07 20.8474L106.498 5.85033L105.711 4.05811C105.186 2.81344 104.422 1.77243 103.497 1.0389C103.152 0.839348 102.793 0.681315 102.426 0.566719C102.212 0.472184 102.14 0.377648 102.212 0.189071C102.212 0 102.354 0.0945357 102.426 0H107.642L107.643 0.000989903ZM86.2851 24.903H86.5711C99.7144 24.903 99.5724 0.0945357 86.5711 0.0945357H75.7854C75.5711 0.0945357 75.2146 0 75.2146 0.377648C75.2352 0.456962 75.2733 0.526318 75.324 0.576778C75.3747 0.627238 75.4357 0.656488 75.4991 0.66076C77.0705 1.32103 77.4281 2.45298 77.4989 3.86854V21.1315C77.4281 22.6406 77.0705 23.6775 75.4991 24.3382C75.3567 24.4338 75.2146 24.5278 75.2146 24.7159C75.2146 24.999 75.5714 24.999 75.7854 24.999H82.7139V24.9035H86.2847L86.2851 24.903ZM86.2851 1.88774C87.2502 1.89269 88.1746 2.40102 88.8572 3.30201C89.5398 4.203 89.9252 5.42367 89.9294 6.69818V18.2073C89.9253 19.4819 89.5399 20.7028 88.8574 21.604C88.1748 22.5051 87.2503 23.0136 86.2851 23.0187H82.7135V1.88675H86.2851V1.88774ZM59.0716 15.8493H62.4285L59.0716 8.30232L58.7148 7.54702L55.7166 15.8493H59.0731H59.0716ZM59.0716 0.00197981H61.4289L71.0003 22.2659C71.2154 22.8618 71.5648 23.3552 72.0006 23.6785C72.3716 23.9946 72.7832 24.2185 73.2152 24.3392C73.3576 24.4348 73.4997 24.5288 73.4997 24.7169C73.4997 25 73.0713 25 72.9289 25H64.4301C64.2866 25 63.9298 25 63.9298 24.7169C63.9298 24.5288 64.0006 24.4338 64.2143 24.3392C64.4036 24.2751 64.5766 24.1451 64.715 23.9627C64.8534 23.7803 64.9523 23.5523 65.0013 23.3023C65.1437 22.6416 65.0013 22.2654 64.7153 21.4146C64.215 20 63.6442 18.679 63.145 17.3589H55.1421L55.0713 17.547C54.9997 17.9247 54.4994 19.2447 53.9994 20.6603C53.4995 22.1694 53.2142 22.546 53.3574 23.3013C53.4213 23.5566 53.5336 23.7859 53.6838 23.9675C53.8339 24.149 54.0168 24.2767 54.2149 24.3382C54.3573 24.4338 54.5001 24.5278 54.5001 24.7159C54.5001 24.999 54.1433 24.999 53.9293 24.999H50.0714C49.9282 24.999 49.4995 24.999 49.4995 24.7159C49.4995 24.5278 49.6426 24.4328 49.7854 24.3382C50.2133 24.2004 50.6228 23.9776 51.0001 23.6775C51.4193 23.3274 51.7635 22.841 51.9996 22.2649L52.4995 20.8483L58.0001 5.85132L57.2131 4.0591C56.6667 2.83499 55.9076 1.8001 54.9986 1.03989C54.6283 0.839766 54.2457 0.681797 53.8551 0.567709C53.7119 0.473174 53.5692 0.378638 53.6415 0.190061C53.7138 0.00148485 53.8551 0.0955256 53.9274 0.000989903H59.0697L59.0716 0.00197981ZM35.4998 16.5091C37.1751 17.3042 38.9946 17.403 40.7136 16.7922L46.9285 23.8671L47.4285 24.4328C47.4558 24.4699 47.4764 24.5145 47.4889 24.5635C47.5015 24.6125 47.5055 24.6646 47.5008 24.7159C47.5008 24.999 47.1433 24.999 47.0005 24.999H40.4292L35.5005 19.6224L31.5002 15.3767V21.2265C31.5725 22.6411 32.0005 23.678 33.5 24.3387C33.6431 24.4343 33.7143 24.5283 33.7143 24.7164C33.7143 24.9995 33.3568 24.9995 33.214 24.9995H24.571C24.3573 24.9995 23.9998 24.9995 23.9998 24.7164C23.9998 24.5283 24.143 24.4333 24.285 24.3387C25.9996 23.5849 26.214 22.453 26.2848 20.6608V4.33874C26.2132 2.64106 25.9989 1.41408 24.285 0.65977C24.2215 0.655626 24.1604 0.626438 24.1095 0.575975C24.0587 0.525511 24.0205 0.456086 23.9998 0.376658C23.9998 2.95014e-08 24.3573 0.0935458 24.571 0.0935458H38.4995C39.2631 0.0854285 40.0204 0.277057 40.7277 0.657381C41.435 1.0377 42.0783 1.59919 42.6204 2.30947C43.1626 3.01975 43.5929 3.86475 43.8866 4.79575C44.1802 5.72675 44.3314 6.72532 44.3314 7.73386C44.3314 8.74241 44.1802 9.74098 43.8866 10.672C43.5929 11.603 43.1626 12.448 42.6204 13.1583C42.0783 13.8685 41.435 14.43 40.7277 14.8103C40.0204 15.1907 39.2631 15.3823 38.4995 15.3742H33.9999C34.2143 15.9399 34.7142 16.1295 35.1426 16.4136C35.2858 16.4136 35.357 16.5096 35.5001 16.5096L35.4998 16.5091ZM35.4998 13.5844H36.0709C37.9279 13.5844 39.4994 10.9424 39.4994 7.54603C39.4994 4.2447 37.9279 1.60364 36.0709 1.60364H31.4987V13.5849H35.499L35.4998 13.5844ZM11.5712 1.60414H7.49999V13.5854H12.2162C14.1447 13.5854 15.6446 10.9434 15.6446 7.54702C15.6446 4.24569 14.1455 1.60463 12.2162 1.60463L11.5712 1.60414Z" fill="#F36B6D"/>
</svg>
