<svg width="122" height="33" viewBox="0 0 122 33" fill="none" xmlns="http://www.w3.org/2000/svg">
<path fill-rule="evenodd" clip-rule="evenodd" d="M35.8705 32.1383C32.3009 32.1383 28.8866 30.166 26.6759 27.4718C24.1569 24.4097 22.9297 20.4521 22.9297 16.5383C22.9297 12.7775 24.0571 8.9943 26.3884 5.99652C28.687 3.05342 32.1457 0.949184 35.9918 0.949184C39.5281 0.949184 42.9203 2.9447 45.0977 5.6041C47.6063 8.6675 48.855 12.6354 48.855 16.5499C48.855 20.299 47.7165 24.0823 45.3957 27.08C43.1199 30.0006 39.6827 32.1383 35.8705 32.1383ZM0 1.59248H10.7524V1.89677H8.11142L16.1342 23.5689L22.9081 1.89677H20.245V1.59248H26.0467V1.89677H23.4826L13.9353 31.854L2.82944 1.89677H0V1.59248ZM72.3931 1.06884V11.48H72.1499C71.6967 9.43045 71.0556 7.43558 69.9399 5.62598C68.6142 3.5108 66.5034 1.1351 63.7515 1.1351C57.4307 1.1351 56.8563 12.3092 56.8563 16.5717C56.8563 20.3878 57.1653 24.3229 58.5687 27.8983C59.552 30.4059 60.9775 31.6372 63.6191 31.6372C65.7182 31.6372 67.951 30.5905 69.0667 28.7912C69.3543 28.3223 69.3765 27.7999 69.3765 27.266V19.2196H66.6142V18.9043H76.7256V19.2196H74.3605V31.2551H74.1518C73.5545 30.274 72.6148 29.6307 71.411 29.6307C70.5372 29.6307 69.6862 29.9363 68.9252 30.3506L68.2399 30.7211C66.6925 31.3972 65.2109 31.8868 63.4985 31.8868C55.6531 31.8868 51.4758 23.6345 51.4758 16.7892C51.4758 11.7849 53.4099 6.43203 57.5207 3.30366C59.3662 1.89676 61.5983 0.861694 63.9739 0.861694C64.9025 0.861694 65.8193 1.14475 66.6814 1.48312L67.312 1.72307C68.0306 1.98489 68.815 2.23514 69.5878 2.23514C70.5496 2.23514 71.4117 1.61371 72.1518 1.06884H72.3931ZM75.4103 1.59248H86.1954V1.89741H83.3333V24.9983C83.3333 28.6169 87.1122 30.8195 90.4157 30.8195C93.9742 30.8195 96.9686 28.3782 96.9686 24.7912V1.89677H93.5882V1.59184H121.425V12.3079H121.215C120.894 9.47355 120.341 6.56262 118.363 4.34967C116.364 2.11484 113.645 1.89677 110.849 1.89677H107.833V15.6769C108.451 15.7419 109.081 15.7856 109.712 15.7856C113.502 15.7856 114.485 13.2131 114.651 10.0294H114.927V22.1189H114.651C114.175 19.2305 112.883 16.1343 109.446 16.1343C108.905 16.1343 108.374 16.1671 107.833 16.2108V30.9495H112.352C114.696 30.9495 117.026 29.9466 118.685 28.3338C120.098 26.9604 121.083 25.1727 121.426 23.2428C121.613 22.1633 121.702 21.0626 121.757 19.9722H122V31.2551H100.242V30.9495H102.772V1.89677H97.4231V24.878C97.4231 29.6301 92.848 31.7343 88.5612 31.7343C83.7102 31.7343 78.3604 29.4126 78.3604 23.9394V1.89677H75.411L75.4103 1.59248Z" fill="#F36B6D"/>
<path fill-rule="evenodd" clip-rule="evenodd" d="M43.3956 16.5383C43.3956 12.2102 41.8267 1.39563 35.8926 1.39563C29.9363 1.39563 28.3889 12.1992 28.3889 16.5383C28.3889 20.8767 29.9474 31.6912 35.8926 31.6912C41.8267 31.6906 43.3956 20.8664 43.3956 16.5383Z" fill="white"/>
</svg>
